@startuml

hide methods
left to right direction

class Platform {
  -String designation
}

class User {
  -String name
  -String email
  -String password
}

class Administrator {
  -String name
  -String email
}



class Client {
  -String name
  -String email
  -String password
  -String creditCardNumber
  -Date validityDate
  -Integer ccv
  -Integer credits
}

class Address {
  -String street
  -String postalCode
  -Integer number
  -String locality
  -String GPSCoordinates
}

Platform "1" -- "1" Administrator : has registered >
Platform "1" -- "*" User : has registered >
Platform "1" -- "*" Client : has registered >

Administrator "0..1" -- "1" User : act as >

Client "0..1" -- "1" User : act as >
Client "1" -- "1" Address : has >

@enduml
