@startuml
skinparam classAttributeIconSize 0

class EmailHandler {

}

class PerformOrderUI {

}

class PerformOrderController {

}

class OrderDB {

}

class ProductOrderDB {

}

class Product {
  -String name
  -String reference
  -String description
  -Double price
  -Integer amount

}

class Order {
  - int idOrder
  - double finalPrice
}

class ProductOrder {
  -int reference
  -int idOrder
  -int amount
}

class Client {
  -String name
  -String email
  -String creditCardNumber
  -Date validityDate
  -Integer ccv

}

class Adress {
  -String street
  -String postalCode
  -Integer number
  -String locality
  -String GPSCoordinates

}

class ClientDB {

}

class User {
  -String name
  -String mail
  -String password
}

PerformOrderUI ..> PerformOrderController
PerformOrderController ..> ProductOrderDB
PerformOrderController ..> OrderDB
PerformOrderController ..> ClientDB
ClientDB ..> Client
OrderDB  ..>  Order
ProductOrderDB ..> ProductOrder
PerformOrderController ..> EmailHandler

Client "1" --> "*" Order : add>

Client "*" --> "1" Adress: has >

Client "1" --> "1" User : acts has >

Order "1" -- "*" ProductOrder : has >

ProductOrder "*" -- "1" Product : has >



@enduml
